<svg width="19" height="20" viewBox="0 0 19 20" fill="none" xmlns="http://www.w3.org/2000/svg">
<path d="M16.0996 15.6289L18.785 18.3129C18.9102 18.4425 18.9795 18.6162 18.9779 18.7964C18.9764 18.9767 18.9041 19.1491 18.7766 19.2766C18.6491 19.4041 18.4767 19.4764 18.2964 19.4779C18.1162 19.4795 17.9425 19.4102 17.8129 19.285L15.1275 16.5996C13.3727 18.1031 11.1037 18.8685 8.79673 18.7351C6.48976 18.6018 4.32411 17.58 2.7542 15.8844C1.1843 14.1887 0.332184 11.9509 0.376657 9.64049C0.421131 7.3301 1.35874 5.12673 2.99273 3.49273C4.62673 1.85874 6.8301 0.921131 9.14049 0.876657C11.4509 0.832184 13.6887 1.6843 15.3844 3.2542C17.08 4.82411 18.1018 6.98976 18.2351 9.29673C18.3685 11.6037 17.6031 13.8727 16.0996 15.6275V15.6289ZM9.31261 17.3751C11.3183 17.3751 13.2419 16.5783 14.6601 15.1601C16.0783 13.7419 16.8751 11.8183 16.8751 9.81261C16.8751 7.80691 16.0783 5.88336 14.6601 4.46512C13.2419 3.04687 11.3183 2.25011 9.31261 2.25011C7.30691 2.25011 5.38336 3.04687 3.96512 4.46512C2.54687 5.88336 1.75011 7.80691 1.75011 9.81261C1.75011 11.8183 2.54687 13.7419 3.96512 15.1601C5.38336 16.5783 7.30691 17.3751 9.31261 17.3751Z" fill="#707070"/>
</svg>
